<svg width="20" height="20" viewBox="0 0 20 20" fill="none" xmlns="http://www.w3.org/2000/svg">
<g id="remove_red_eye" clip-path="url(#clip0_138_1959)">
<path id="Vector" d="M10.1532 4.0625C6.19482 4.0625 2.81441 6.52458 1.44482 10C2.81441 13.4754 6.19482 15.9375 10.1532 15.9375C14.1115 15.9375 17.4919 13.4754 18.8615 10C17.4919 6.52458 14.1115 4.0625 10.1532 4.0625ZM10.1532 13.9583C7.96816 13.9583 6.19482 12.185 6.19482 10C6.19482 7.815 7.96816 6.04167 10.1532 6.04167C12.3382 6.04167 14.1115 7.815 14.1115 10C14.1115 12.185 12.3382 13.9583 10.1532 13.9583ZM10.1532 7.625C8.83899 7.625 7.77816 8.68583 7.77816 10C7.77816 11.3142 8.83899 12.375 10.1532 12.375C11.4673 12.375 12.5282 11.3142 12.5282 10C12.5282 8.68583 11.4673 7.625 10.1532 7.625Z" fill="#8B8B8B"/>
</g>
<defs>
<clipPath id="clip0_138_1959">
<rect width="19" height="19" fill="white" transform="translate(0.65332 0.5)"/>
</clipPath>
</defs>
</svg>
